<svg width="12" height="21" viewBox="0 0 12 21" fill="none" xmlns="http://www.w3.org/2000/svg">
<path d="M9.62212 20.1042L0.304147 11.2388C0.193548 11.1332 0.115391 11.0189 0.0696771 10.8958C0.0232255 10.7726 0 10.6407 0 10.5C0 10.3593 0.0232255 10.2274 0.0696771 10.1042C0.115391 9.98109 0.193548 9.86675 0.304147 9.76121L9.62212 0.869393C9.88019 0.623131 10.2028 0.5 10.5899 0.5C10.977 0.5 11.3088 0.631926 11.5853 0.895778C11.8618 1.15963 12 1.46746 12 1.81926C12 2.17106 11.8618 2.47889 11.5853 2.74274L3.45622 10.5L11.5853 18.2573C11.8433 18.5035 11.9724 18.8068 11.9724 19.167C11.9724 19.528 11.8341 19.8404 11.5576 20.1042C11.2811 20.3681 10.9585 20.5 10.5899 20.5C10.2212 20.5 9.89862 20.3681 9.62212 20.1042Z" fill="#173FA3"/>
</svg>
