<svg width="30" height="30" viewBox="0 0 30 30" fill="none" xmlns="http://www.w3.org/2000/svg">
<mask id="mask0_282_543" style="mask-type:luminance" maskUnits="userSpaceOnUse" x="0" y="0" width="30" height="30">
<path d="M29.7087 0.805335L1 0.5L0.694665 29.2087L29.4033 29.514L29.7087 0.805335Z" fill="white"/>
</mask>
<g mask="url(#mask0_282_543)">
<path d="M22.4984 28.4689L7.62107 28.3106C6.68937 28.2998 5.80002 27.9197 5.14821 27.2539C4.49639 26.5881 4.13535 25.6909 4.14431 24.7591L4.35423 5.02193C4.36509 4.09023 4.74513 3.20089 5.41096 2.54908C6.07678 1.89727 6.97402 1.53622 7.90574 1.54518L22.7831 1.70341C23.7147 1.71451 24.6039 2.09463 25.2557 2.7604C25.9074 3.42618 26.2686 4.32326 26.2598 5.25491L26.0499 24.9921C26.0388 25.9237 25.6587 26.8129 24.9929 27.4647C24.3271 28.1165 23.4301 28.4776 22.4984 28.4689ZM7.88666 3.33947C7.43067 3.3351 6.99156 3.51181 6.66571 3.83081C6.33985 4.14981 6.15384 4.58504 6.14852 5.04102L5.9386 24.7782C5.93422 25.2342 6.11093 25.6733 6.42993 25.9992C6.74893 26.325 7.18418 26.511 7.64016 26.5163L22.5175 26.6746C22.9735 26.6789 23.4126 26.5022 23.7384 26.1832C24.0643 25.8642 24.2503 25.429 24.2556 24.973L24.4656 5.23583C24.4699 4.77984 24.2932 4.34075 23.9742 4.01489C23.6552 3.68904 23.22 3.50303 22.764 3.4977L7.88666 3.33947Z" fill="#1D4DCA"/>
<path d="M21.7032 17.4298L8.86786 17.2933C8.64092 17.2909 8.42426 17.1941 8.26557 17.0241C8.10689 16.8542 8.01918 16.625 8.02171 16.3871C8.02424 16.1491 8.11681 15.9219 8.27907 15.7554C8.44133 15.5888 8.66 15.4966 8.88694 15.499L21.7223 15.6355C21.9493 15.6379 22.1659 15.7348 22.3246 15.9047C22.4833 16.0747 22.571 16.3038 22.5685 16.5418C22.566 16.7797 22.4734 17.007 22.3111 17.1735C22.1488 17.34 21.9302 17.4322 21.7032 17.4298Z" fill="#1D4DCA"/>
<path d="M21.6661 20.4299L8.83075 20.2933C8.60381 20.2909 8.38715 20.1941 8.22846 20.0241C8.06978 19.8542 7.98207 19.625 7.9846 19.3871C7.98713 19.1492 8.0797 18.9219 8.24196 18.7554C8.40422 18.5888 8.62289 18.4966 8.84983 18.499L21.6852 18.6356C21.9122 18.638 22.1288 18.7348 22.2875 18.9048C22.4462 19.0747 22.5339 19.3039 22.5314 19.5418C22.5288 19.7797 22.4363 20.007 22.274 20.1735C22.1117 20.3401 21.8931 20.4323 21.6661 20.4299Z" fill="#1D4DCA"/>
<path d="M21.6647 23.4344L8.82928 23.2979C8.60234 23.2955 8.38571 23.1987 8.22703 23.0287C8.06834 22.8588 7.9806 22.6296 7.98313 22.3917C7.98566 22.1537 8.07826 21.9265 8.24052 21.76C8.40278 21.5934 8.62142 21.5012 8.84837 21.5036L21.6838 21.6401C21.9107 21.6426 22.1274 21.7394 22.286 21.9093C22.4447 22.0793 22.5324 22.3084 22.5299 22.5464C22.5274 22.7843 22.4348 23.0116 22.2725 23.1781C22.1103 23.3446 21.8916 23.4368 21.6647 23.4344Z" fill="#1D4DCA"/>
<path d="M21.6686 11.4399L8.83319 11.3034C8.60625 11.301 8.38959 11.2042 8.23091 11.0342C8.07222 10.8643 7.98451 10.6351 7.98704 10.3972C7.98957 10.1592 8.08214 9.932 8.2444 9.76546C8.40666 9.59892 8.62533 9.50672 8.85227 9.50913L21.6877 9.64564C21.9146 9.64806 22.1312 9.74489 22.2899 9.91485C22.4486 10.0848 22.5363 10.314 22.5338 10.5519C22.5313 10.7898 22.4387 11.0171 22.2764 11.1836C22.1142 11.3501 21.8955 11.4423 21.6686 11.4399Z" fill="#1D4DCA"/>
<path d="M17.0242 8.39051L8.54612 8.30034C8.39622 8.29874 8.25345 8.20269 8.14925 8.03332C8.04504 7.86394 7.98793 7.63512 7.99046 7.39718C7.99299 7.15924 8.05495 6.93168 8.16274 6.76456C8.27053 6.59744 8.4153 6.50445 8.5652 6.50605L17.0432 6.59621C17.1931 6.59781 17.3359 6.69386 17.4401 6.86323C17.5443 7.03261 17.6014 7.26143 17.5989 7.49937C17.5964 7.73731 17.5344 7.96487 17.4266 8.13199C17.3188 8.29911 17.1741 8.3921 17.0242 8.39051Z" fill="#1D4DCA"/>
<path d="M21.6696 14.4391L8.83417 14.3026C8.60722 14.3002 8.39059 14.2033 8.23191 14.0334C8.07322 13.8634 7.98549 13.6343 7.98802 13.3963C7.99055 13.1584 8.08314 12.9312 8.2454 12.7646C8.40767 12.5981 8.62631 12.5059 8.85325 12.5083L21.6886 12.6448C21.9156 12.6472 22.1322 12.744 22.2909 12.914C22.4496 13.084 22.5373 13.3131 22.5348 13.551C22.5323 13.789 22.4397 14.0162 22.2774 14.1828C22.1152 14.3493 21.8965 14.4415 21.6696 14.4391Z" fill="#1D4DCA"/>
</g>
</svg>
