<svg width="45" height="46" viewBox="0 0 45 46" fill="none" xmlns="http://www.w3.org/2000/svg">
<path d="M24.6221 33.1042L15.3041 24.2388C15.1935 24.1332 15.1154 24.0189 15.0697 23.8958C15.0232 23.7726 15 23.6407 15 23.5C15 23.3593 15.0232 23.2274 15.0697 23.1042C15.1154 22.9811 15.1935 22.8668 15.3041 22.7612L24.6221 13.8694C24.8802 13.6231 25.2028 13.5 25.5899 13.5C25.977 13.5 26.3088 13.6319 26.5853 13.8958C26.8618 14.1596 27 14.4675 27 14.8193C27 15.1711 26.8618 15.4789 26.5853 15.7427L18.4562 23.5L26.5853 31.2573C26.8433 31.5035 26.9724 31.8068 26.9724 32.167C26.9724 32.528 26.8341 32.8404 26.5576 33.1042C26.2811 33.3681 25.9585 33.5 25.5899 33.5C25.2212 33.5 24.8986 33.3681 24.6221 33.1042Z" fill="#173FA3"/>
</svg>
